<?xml version="1.0" encoding="UTF-8" standalone="no"?>
<svg
   xmlns:dc="http://purl.org/dc/elements/1.1/"
   xmlns:cc="http://creativecommons.org/ns#"
   xmlns:rdf="http://www.w3.org/1999/02/22-rdf-syntax-ns#"
   xmlns:svg="http://www.w3.org/2000/svg"
   xmlns="http://www.w3.org/2000/svg"
   xmlns:sodipodi="http://sodipodi.sourceforge.net/DTD/sodipodi-0.dtd"
   xmlns:inkscape="http://www.inkscape.org/namespaces/inkscape"
   inkscape:version="1.0 (4035a4fb49, 2020-05-01)"
   sodipodi:docname="discord_simbol.svg"
   id="svg6"
   preserveAspectRatio="xMidYMid"
   version="1.1"
   viewBox="0 0 256 293"
   height="293px"
   width="256px">
  <metadata
     id="metadata12">
    <rdf:RDF>
      <cc:Work
         rdf:about="">
        <dc:format>image/svg+xml</dc:format>
        <dc:type
           rdf:resource="http://purl.org/dc/dcmitype/StillImage" />
        <dc:title></dc:title>
      </cc:Work>
    </rdf:RDF>
  </metadata>
  <defs
     id="defs10" />
  <sodipodi:namedview
     inkscape:current-layer="g4"
     inkscape:window-maximized="1"
     inkscape:window-y="-4"
     inkscape:window-x="1912"
     inkscape:cy="132.87209"
     inkscape:cx="128"
     inkscape:zoom="2.9351536"
     showgrid="false"
     id="namedview8"
     inkscape:window-height="1027"
     inkscape:window-width="1920"
     inkscape:pageshadow="2"
     inkscape:pageopacity="0"
     guidetolerance="10"
     gridtolerance="10"
     objecttolerance="10"
     borderopacity="1"
     bordercolor="#666666"
     pagecolor="#ffffff" />
  <g
     id="g4">
    <path
       d="m 97.089712,64.977362 c 0,0 -26.599457,-0.583266 -54.556417,20.384456 0,0 -27.956047,50.672772 -27.956047,113.187652 0,0 16.308287,28.1497 59.214459,29.50872 0,0 7.182908,-8.73509 13.007274,-16.11263 -24.65648,-7.37753 -33.974957,-22.90918 -33.974957,-22.90918 0,0 1.941065,1.35831 5.435682,3.29977 0.194151,0.19415 0.389335,0.38907 0.777637,0.58323 0.582428,0.38828 1.16465,0.58116 1.747091,0.96945 4.853636,2.71804 9.70579,4.85483 14.171136,6.60214 7.959977,3.10633 17.472985,6.21102 28.53928,8.34663 14.56092,2.71804 31.64663,3.68904 50.28459,0.19441 9.12484,-1.55316 18.44319,-4.26958 28.15046,-8.34664 6.79509,-2.5239 14.366,-6.21267 22.32596,-11.45459 0,0 -9.70577,15.92022 -35.13883,23.1036 5.82437,7.37754 12.81287,15.72381 12.81287,15.72381 42.90618,-1.35902 59.40887,-29.50872 59.40887,-29.50872 0,-62.51488 -27.95605,-113.187652 -27.95605,-113.187652 C 185.42576,64.394096 158.82631,64.977362 158.82631,64.977362 l -2.71655,3.105363 c 33.00474,10.095574 48.3405,24.65627 48.3405,24.65627 -20.19114,-11.066294 -39.99299,-16.501763 -58.43682,-18.63736 -13.97849,-1.55317 -27.37335,-1.164338 -39.21623,0.388819 -1.16487,0 -2.13748,0.194679 -3.30236,0.388817 -6.7951,0.582442 -23.297706,3.104797 -44.071281,12.229643 -7.183385,3.300478 -11.454592,5.630081 -11.454592,5.630081 0,0 16.116031,-15.335741 51.062234,-25.431315 z m -5.438279,72.416148 c 11.066287,0 19.997967,9.70802 19.803827,21.55091 0,11.84288 -8.73754,21.54832 -19.803827,21.54832 -10.872145,0 -19.801225,-9.70544 -19.801225,-21.54832 0,-11.84289 8.734929,-21.55091 19.801225,-21.55091 z m 70.863457,0 c 11.06631,0 19.80383,9.70802 19.80383,21.55091 0,11.84288 -8.73752,21.54832 -19.80383,21.54832 -10.87215,0 -19.80122,-9.70544 -19.80122,-21.54832 0,-11.84289 8.73493,-21.55091 19.80122,-21.55091 z"
       style="fill:#ffffff;stroke-width:1.32717"
       id="rect837" />
  </g>
</svg>
