<?xml version="1.0" encoding="UTF-8" standalone="no"?>
<svg
   xmlns:dc="http://purl.org/dc/elements/1.1/"
   xmlns:cc="http://creativecommons.org/ns#"
   xmlns:rdf="http://www.w3.org/1999/02/22-rdf-syntax-ns#"
   xmlns:svg="http://www.w3.org/2000/svg"
   xmlns="http://www.w3.org/2000/svg"
   xmlns:sodipodi="http://sodipodi.sourceforge.net/DTD/sodipodi-0.dtd"
   xmlns:inkscape="http://www.inkscape.org/namespaces/inkscape"
   sodipodi:docname="icon_show_more.svg"
   inkscape:version="1.0 (4035a4fb49, 2020-05-01)"
   id="svg8"
   version="1.1"
   viewBox="0 0 50 50"
   height="50mm"
   width="50mm">
  <defs
     id="defs2" />
  <sodipodi:namedview
     inkscape:window-maximized="1"
     inkscape:window-y="-8"
     inkscape:window-x="1912"
     inkscape:window-height="1027"
     inkscape:window-width="1920"
     showgrid="false"
     inkscape:document-rotation="0"
     inkscape:current-layer="layer1"
     inkscape:document-units="mm"
     inkscape:cy="98.283047"
     inkscape:cx="93.882314"
     inkscape:zoom="3.2792339"
     inkscape:pageshadow="2"
     inkscape:pageopacity="0.0"
     borderopacity="1.0"
     bordercolor="#666666"
     pagecolor="#ffffff"
     id="base" />
  <metadata
     id="metadata5">
    <rdf:RDF>
      <cc:Work
         rdf:about="">
        <dc:format>image/svg+xml</dc:format>
        <dc:type
           rdf:resource="http://purl.org/dc/dcmitype/StillImage" />
        <dc:title></dc:title>
      </cc:Work>
    </rdf:RDF>
  </metadata>
  <g
     id="layer1"
     inkscape:groupmode="layer"
     inkscape:label="Layer 1">
    <path
       d="m 7.5823133,18.970394 a 6.0296193,6.0296193 0 0 0 -5.9806378,6.029631 6.0296193,6.0296193 0 0 0 6.0296312,6.029631 6.0296193,6.0296193 0 0 0 6.0296313,-6.029631 6.0296193,6.0296193 0 0 0 -6.0296313,-6.029631 6.0296193,6.0296193 0 0 0 -0.048993,0 z m 17.3689807,0 a 6.0296193,6.0296193 0 0 0 -5.980638,6.029631 6.0296193,6.0296193 0 0 0 6.029632,6.029631 6.0296193,6.0296193 0 0 0 6.02963,-6.029631 6.0296193,6.0296193 0 0 0 -6.02963,-6.029631 6.0296193,6.0296193 0 0 0 -0.04899,0 z m 17.36898,0 a 6.0296193,6.0296193 0 0 0 -5.981215,6.029631 6.0296193,6.0296193 0 0 0 6.029632,6.029631 6.0296193,6.0296193 0 0 0 6.029634,-6.029631 6.0296193,6.0296193 0 0 0 -6.029634,-6.029631 6.0296193,6.0296193 0 0 0 -0.04842,0 z"
       style="fill:#b3b3b3;stroke:#ff0000;stroke-width:0;stroke-linecap:round"
       id="path833" />
  </g>
</svg>
