<?xml version="1.0" encoding="UTF-8" standalone="no"?>
<svg
   xmlns:dc="http://purl.org/dc/elements/1.1/"
   xmlns:cc="http://creativecommons.org/ns#"
   xmlns:rdf="http://www.w3.org/1999/02/22-rdf-syntax-ns#"
   xmlns:svg="http://www.w3.org/2000/svg"
   xmlns="http://www.w3.org/2000/svg"
   xmlns:sodipodi="http://sodipodi.sourceforge.net/DTD/sodipodi-0.dtd"
   xmlns:inkscape="http://www.inkscape.org/namespaces/inkscape"
   sodipodi:docname="icon_emoji.svg"
   inkscape:version="1.0 (4035a4fb49, 2020-05-01)"
   id="svg8"
   version="1.1"
   viewBox="0 0 50 49.999998"
   height="50mm"
   width="50mm">
  <defs
     id="defs2">
    <inkscape:path-effect
       hide_knots="false"
       only_selected="true"
       apply_with_radius="true"
       apply_no_radius="true"
       use_knot_distance="true"
       flexible="false"
       chamfer_steps="1"
       radius="12"
       mode="F"
       method="auto"
       unit="px"
       satellites_param="F,0,0,1,0,0,0,1 @ F,0,0,1,0,0,0,1 @ F,0,0,1,0,0,0,1 @ F,0,1,1,0,3.175,0,1"
       lpeversion="1"
       is_visible="true"
       id="path-effect971"
       effect="fillet_chamfer" />
    <inkscape:path-effect
       hide_knots="false"
       only_selected="true"
       apply_with_radius="true"
       apply_no_radius="true"
       use_knot_distance="true"
       flexible="false"
       chamfer_steps="1"
       radius="39"
       mode="F"
       method="auto"
       unit="px"
       satellites_param="F,0,0,1,0,0,0,1 @ C,0,1,1,0,10.31875,0,1 @ F,0,0,1,0,0,0,1 @ F,0,0,1,0,0,0,1 @ F,0,0,1,0,0,0,1 @ F,0,0,1,0,0,0,1 @ F,0,0,1,0,0,0,1"
       lpeversion="1"
       is_visible="true"
       id="path-effect960"
       effect="fillet_chamfer" />
    <inkscape:path-effect
       hide_knots="false"
       only_selected="true"
       apply_with_radius="true"
       apply_no_radius="true"
       use_knot_distance="true"
       flexible="false"
       chamfer_steps="1"
       radius="13"
       mode="F"
       method="auto"
       unit="px"
       satellites_param="F,0,1,1,0,3.4395833,0,1 @ F,0,0,1,0,0,0,1 @ F,0,1,1,0,3.4395833,0,1 @ F,0,1,1,0,3.4395833,0,1"
       lpeversion="1"
       is_visible="true"
       id="path-effect958"
       effect="fillet_chamfer" />
    <inkscape:path-effect
       hide_knots="false"
       only_selected="false"
       apply_with_radius="true"
       apply_no_radius="true"
       use_knot_distance="true"
       flexible="false"
       chamfer_steps="1"
       radius="11"
       mode="F"
       method="auto"
       unit="px"
       satellites_param="F,0,0,1,0,2.9104167,0,1 @ F,0,0,1,0,2.9104167,0,1 @ F,0,0,1,0,2.9104167,0,1 @ F,0,0,1,0,2.9104167,0,1"
       lpeversion="1"
       is_visible="true"
       id="path-effect915"
       effect="fillet_chamfer" />
    <inkscape:path-effect
       effect="fillet_chamfer"
       id="path-effect881"
       is_visible="true"
       lpeversion="1"
       satellites_param="F,0,1,1,0,2.38125,0,1 @ F,0,1,1,0,2.38125,0,1 @ F,0,0,1,0,0,0,1 @ F,0,0,1,0,0,0,1"
       unit="px"
       method="auto"
       mode="F"
       radius="9"
       chamfer_steps="1"
       flexible="false"
       use_knot_distance="true"
       apply_no_radius="true"
       apply_with_radius="true"
       only_selected="true"
       hide_knots="false" />
    <inkscape:path-effect
       hide_knots="false"
       only_selected="true"
       apply_with_radius="true"
       apply_no_radius="true"
       use_knot_distance="true"
       flexible="false"
       chamfer_steps="1"
       radius="9"
       mode="F"
       method="auto"
       unit="px"
       satellites_param="F,0,1,1,0,2.38125,0,1 @ F,0,1,1,0,2.38125,0,1 @ F,0,0,1,0,0,0,1 @ F,0,0,1,0,0,0,1"
       lpeversion="1"
       is_visible="true"
       id="path-effect862"
       effect="fillet_chamfer" />
    <inkscape:path-effect
       hide_knots="false"
       only_selected="false"
       apply_with_radius="true"
       apply_no_radius="true"
       use_knot_distance="true"
       flexible="false"
       chamfer_steps="1"
       radius="10"
       mode="F"
       method="auto"
       unit="px"
       satellites_param="F,0,0,1,0,2.6458333,0,1 @ F,0,0,1,0,2.6458333,0,1 @ F,0,0,1,0,2.6458333,0,1 @ F,0,0,1,0,2.6458333,0,1"
       lpeversion="1"
       is_visible="true"
       id="path-effect855"
       effect="fillet_chamfer" />
    <pattern
       id="EMFhbasepattern"
       patternUnits="userSpaceOnUse"
       width="6"
       height="6"
       x="0"
       y="0" />
    <pattern
       id="EMFhbasepattern-9"
       patternUnits="userSpaceOnUse"
       width="6"
       height="6"
       x="0"
       y="0" />
    <pattern
       id="EMFhbasepattern-3"
       patternUnits="userSpaceOnUse"
       width="6"
       height="6"
       x="0"
       y="0" />
  </defs>
  <sodipodi:namedview
     inkscape:snap-smooth-nodes="true"
     inkscape:snap-midpoints="true"
     inkscape:snap-object-midpoints="true"
     inkscape:snap-center="true"
     inkscape:window-maximized="1"
     inkscape:window-y="-8"
     inkscape:window-x="1912"
     inkscape:window-height="1027"
     inkscape:window-width="1920"
     showgrid="false"
     inkscape:document-rotation="0"
     inkscape:current-layer="layer1"
     inkscape:document-units="mm"
     inkscape:cy="134.54577"
     inkscape:cx="53.117372"
     inkscape:zoom="3.1318643"
     inkscape:pageshadow="2"
     inkscape:pageopacity="0.0"
     borderopacity="1.0"
     bordercolor="#666666"
     pagecolor="#ffffff"
     id="base" />
  <metadata
     id="metadata5">
    <rdf:RDF>
      <cc:Work
         rdf:about="">
        <dc:format>image/svg+xml</dc:format>
        <dc:type
           rdf:resource="http://purl.org/dc/dcmitype/StillImage" />
        <dc:title></dc:title>
      </cc:Work>
    </rdf:RDF>
  </metadata>
  <g
     id="layer1"
     inkscape:groupmode="layer"
     inkscape:label="Layer 1">
    <path
       d="M 24.923616,1.3387128 A 23.661309,23.661309 0 0 0 1.3386977,25.000016 23.661309,23.661309 0 0 0 24.999999,48.661319 23.661309,23.661309 0 0 0 48.661302,25.000016 23.661309,23.661309 0 0 0 24.999999,1.3387128 a 23.661309,23.661309 0 0 0 -0.07638,0 z M 40.893451,16.395227 c 4.142437,0 4.178247,0.0028 4.414135,0.339549 0.4783,0.682871 0.306895,1.475917 -0.81635,3.775915 -0.579806,1.187233 -1.173933,2.654637 -1.3203,3.260921 -0.365023,1.511985 -0.752096,2.287107 -1.612112,3.228101 -1.435918,1.571124 -3.691913,2.382061 -6.617025,2.378931 -0.968626,-0.0011 -2.041183,-0.09417 -2.504545,-0.217515 -2.691851,-0.716537 -4.777191,-2.809175 -6.035497,-6.056679 -1.100165,-2.839372 -1.406122,-2.837185 -2.586001,0.0179 -1.36077,3.292815 -3.062042,5.052109 -5.755024,5.951056 -1.128737,0.376785 -3.545606,0.525281 -4.946731,0.303744 C 11.680804,29.150542 10.325307,28.408871 9.0978955,27.17963 7.8017337,25.881538 7.1373797,24.724411 6.2830417,22.27676 5.931113,21.268497 5.3750744,19.953884 5.0471794,19.355387 4.3527089,18.087792 4.2557107,17.201612 4.7565639,16.700759 c 0.2890818,-0.289081 0.5091318,-0.305356 4.0865208,-0.305236 5.5657743,1.53e-4 8.4489673,0.358869 12.8801793,1.602265 1.629932,0.457359 2.133886,0.533298 3.544973,0.534685 1.506722,0.0015 1.795399,-0.04858 3.437261,-0.594956 3.682977,-1.225636 6.185048,-1.542292 12.187953,-1.542292 z M 14.030305,32.50679 c 0.269511,-0.01121 0.820747,0.299626 1.909888,1.057136 2.397055,1.667178 6.980376,2.996564 9.107248,2.996564 3.185345,0 5.665658,-0.96763 8.582111,-2.676409 1.932306,-1.132157 2.444296,-1.356683 2.642693,-1.158285 0.385616,0.385617 -1.210132,2.725882 -2.665668,3.909287 -6.526076,4.586853 -11.986901,3.59999 -17.130208,-0.07698 -1.465272,-1.084738 -3.052679,-3.531822 -2.590775,-3.993725 0.03535,-0.03535 0.08252,-0.055 0.144711,-0.05759 z"
       style="fill:#b3b3b3;fill-opacity:1;stroke:#ff0000;stroke-width:0;stroke-linecap:round;stroke-miterlimit:4;stroke-dasharray:none"
       id="path1071" />
  </g>
</svg>
